<mxfile host="app.diagrams.net" modified="2021-07-27T07:40:11.760Z" agent="5.0 (Windows)" etag="8_RiDPL1kHzLYtyG4zcU" version="14.9.2" type="github">
  <diagram id="dm52R6nY966aKzihAJZx" name="Metamodel">
    <mxGraphModel dx="1422" dy="780" grid="1" gridSize="10" guides="1" tooltips="1" connect="1" arrows="1" fold="1" page="1" pageScale="1" pageWidth="1654" pageHeight="1169" math="0" shadow="0">
      <root>
        <mxCell id="0" />
        <mxCell id="1" parent="0" />
        <mxCell id="15" style="edgeStyle=orthogonalEdgeStyle;rounded=0;orthogonalLoop=1;jettySize=auto;html=1;entryX=0;entryY=0.5;entryDx=0;entryDy=0;startArrow=classic;startFill=1;endArrow=none;endFill=0;" parent="1" source="iv_Oz-Tk-qWS8nwZnw3V-1" target="iv_Oz-Tk-qWS8nwZnw3V-5" edge="1">
          <mxGeometry relative="1" as="geometry" />
        </mxCell>
        <mxCell id="16" value="contains" style="edgeLabel;html=1;align=center;verticalAlign=middle;resizable=0;points=[];" parent="15" vertex="1" connectable="0">
          <mxGeometry x="0.2111" y="-2" relative="1" as="geometry">
            <mxPoint x="34" as="offset" />
          </mxGeometry>
        </mxCell>
        <mxCell id="43" style="edgeStyle=orthogonalEdgeStyle;rounded=0;orthogonalLoop=1;jettySize=auto;html=1;entryX=0.5;entryY=0;entryDx=0;entryDy=0;startArrow=none;startFill=0;endArrow=classic;endFill=1;" parent="1" source="iv_Oz-Tk-qWS8nwZnw3V-1" target="41" edge="1">
          <mxGeometry relative="1" as="geometry">
            <Array as="points">
              <mxPoint x="760" y="130" />
              <mxPoint x="1830" y="130" />
            </Array>
          </mxGeometry>
        </mxCell>
        <mxCell id="46" value="hasBoundary" style="edgeLabel;html=1;align=center;verticalAlign=middle;resizable=0;points=[];" parent="43" vertex="1" connectable="0">
          <mxGeometry x="0.3519" y="3" relative="1" as="geometry">
            <mxPoint as="offset" />
          </mxGeometry>
        </mxCell>
        <mxCell id="iv_Oz-Tk-qWS8nwZnw3V-1" value="nen2660:DiscreteObject" style="swimlane;fontStyle=1;align=center;verticalAlign=top;childLayout=stackLayout;horizontal=1;startSize=26;horizontalStack=0;resizeParent=1;resizeParentMax=0;resizeLast=0;collapsible=1;marginBottom=0;" parent="1" vertex="1">
          <mxGeometry x="640" y="200" width="160" height="34" as="geometry" />
        </mxCell>
        <mxCell id="iv_Oz-Tk-qWS8nwZnw3V-3" value="" style="line;strokeWidth=1;fillColor=none;align=left;verticalAlign=middle;spacingTop=-1;spacingLeft=3;spacingRight=3;rotatable=0;labelPosition=right;points=[];portConstraint=eastwest;" parent="iv_Oz-Tk-qWS8nwZnw3V-1" vertex="1">
          <mxGeometry y="26" width="160" height="8" as="geometry" />
        </mxCell>
        <mxCell id="44" style="edgeStyle=orthogonalEdgeStyle;rounded=0;orthogonalLoop=1;jettySize=auto;html=1;exitX=0.5;exitY=0;exitDx=0;exitDy=0;entryX=0.25;entryY=0;entryDx=0;entryDy=0;startArrow=none;startFill=0;endArrow=classic;endFill=1;" parent="1" source="iv_Oz-Tk-qWS8nwZnw3V-5" target="41" edge="1">
          <mxGeometry relative="1" as="geometry" />
        </mxCell>
        <mxCell id="45" value="hasBoundary" style="edgeLabel;html=1;align=center;verticalAlign=middle;resizable=0;points=[];" parent="44" vertex="1" connectable="0">
          <mxGeometry x="-0.1381" y="-3" relative="1" as="geometry">
            <mxPoint as="offset" />
          </mxGeometry>
        </mxCell>
        <mxCell id="iv_Oz-Tk-qWS8nwZnw3V-5" value="nen2660:SpatialRegion" style="swimlane;fontStyle=1;align=center;verticalAlign=top;childLayout=stackLayout;horizontal=1;startSize=26;horizontalStack=0;resizeParent=1;resizeParentMax=0;resizeLast=0;collapsible=1;marginBottom=0;" parent="1" vertex="1">
          <mxGeometry x="1470" y="200" width="160" height="34" as="geometry" />
        </mxCell>
        <mxCell id="iv_Oz-Tk-qWS8nwZnw3V-6" value="" style="line;strokeWidth=1;fillColor=none;align=left;verticalAlign=middle;spacingTop=-1;spacingLeft=3;spacingRight=3;rotatable=0;labelPosition=right;points=[];portConstraint=eastwest;" parent="iv_Oz-Tk-qWS8nwZnw3V-5" vertex="1">
          <mxGeometry y="26" width="160" height="8" as="geometry" />
        </mxCell>
        <mxCell id="2" value="gwsl:FysiekObject" style="swimlane;fontStyle=0;childLayout=stackLayout;horizontal=1;startSize=26;fillColor=none;horizontalStack=0;resizeParent=1;resizeParentMax=0;resizeLast=0;collapsible=1;marginBottom=0;" parent="1" vertex="1">
          <mxGeometry x="640" y="366" width="160" height="52" as="geometry" />
        </mxCell>
        <mxCell id="35" value="+ dimensies" style="text;strokeColor=none;fillColor=none;align=left;verticalAlign=top;spacingLeft=4;spacingRight=4;overflow=hidden;rotatable=0;points=[[0,0.5],[1,0.5]];portConstraint=eastwest;" parent="2" vertex="1">
          <mxGeometry y="26" width="160" height="26" as="geometry" />
        </mxCell>
        <mxCell id="6" value="Extends" style="endArrow=block;endSize=16;endFill=0;html=1;entryX=0.5;entryY=1;entryDx=0;entryDy=0;" parent="1" source="2" target="iv_Oz-Tk-qWS8nwZnw3V-1" edge="1">
          <mxGeometry width="160" relative="1" as="geometry">
            <mxPoint x="370" y="420" as="sourcePoint" />
            <mxPoint x="530" y="420" as="targetPoint" />
          </mxGeometry>
        </mxCell>
        <mxCell id="30" style="edgeStyle=orthogonalEdgeStyle;rounded=0;orthogonalLoop=1;jettySize=auto;html=1;entryX=0;entryY=0.5;entryDx=0;entryDy=0;startArrow=classic;startFill=1;endArrow=none;endFill=0;" parent="1" source="7" target="11" edge="1">
          <mxGeometry relative="1" as="geometry" />
        </mxCell>
        <mxCell id="7" value="Mast" style="html=1;" parent="1" vertex="1">
          <mxGeometry x="665" y="665" width="110" height="50" as="geometry" />
        </mxCell>
        <mxCell id="8" value="" style="endArrow=block;dashed=1;endFill=0;endSize=12;html=1;entryX=0.5;entryY=1;entryDx=0;entryDy=0;exitX=0.5;exitY=0;exitDx=0;exitDy=0;" parent="1" source="7" target="2" edge="1">
          <mxGeometry width="160" relative="1" as="geometry">
            <mxPoint x="750" y="600" as="sourcePoint" />
            <mxPoint x="910" y="600" as="targetPoint" />
          </mxGeometry>
        </mxCell>
        <mxCell id="9" value="rdf:type" style="edgeLabel;html=1;align=center;verticalAlign=middle;resizable=0;points=[];" parent="8" vertex="1" connectable="0">
          <mxGeometry x="-0.2173" y="5" relative="1" as="geometry">
            <mxPoint as="offset" />
          </mxGeometry>
        </mxCell>
        <mxCell id="10" value="gwsl:RuimtelijkObject" style="swimlane;fontStyle=0;childLayout=stackLayout;horizontal=1;startSize=26;fillColor=none;horizontalStack=0;resizeParent=1;resizeParentMax=0;resizeLast=0;collapsible=1;marginBottom=0;" parent="1" vertex="1">
          <mxGeometry x="1470" y="370" width="160" height="52" as="geometry" />
        </mxCell>
        <mxCell id="11" value="DimregimeGebied" style="html=1;" parent="1" vertex="1">
          <mxGeometry x="1495" y="665" width="110" height="50" as="geometry" />
        </mxCell>
        <mxCell id="12" value="" style="endArrow=block;dashed=1;endFill=0;endSize=12;html=1;entryX=0.5;entryY=1;entryDx=0;entryDy=0;exitX=0.5;exitY=0;exitDx=0;exitDy=0;" parent="1" source="11" target="10" edge="1">
          <mxGeometry width="160" relative="1" as="geometry">
            <mxPoint x="1280" y="595" as="sourcePoint" />
            <mxPoint x="1280" y="432" as="targetPoint" />
          </mxGeometry>
        </mxCell>
        <mxCell id="13" value="rdf:type" style="edgeLabel;html=1;align=center;verticalAlign=middle;resizable=0;points=[];" parent="12" vertex="1" connectable="0">
          <mxGeometry x="-0.2173" y="5" relative="1" as="geometry">
            <mxPoint as="offset" />
          </mxGeometry>
        </mxCell>
        <mxCell id="14" value="Extends" style="endArrow=block;endSize=16;endFill=0;html=1;entryX=0.5;entryY=1;entryDx=0;entryDy=0;exitX=0.5;exitY=0;exitDx=0;exitDy=0;" parent="1" source="10" target="iv_Oz-Tk-qWS8nwZnw3V-5" edge="1">
          <mxGeometry width="160" relative="1" as="geometry">
            <mxPoint x="1280" y="380" as="sourcePoint" />
            <mxPoint x="1280" y="244" as="targetPoint" />
          </mxGeometry>
        </mxCell>
        <mxCell id="17" value="" style="endArrow=none;dashed=1;html=1;dashPattern=1 3;strokeWidth=2;" parent="1" edge="1">
          <mxGeometry width="50" height="50" relative="1" as="geometry">
            <mxPoint x="550" y="560" as="sourcePoint" />
            <mxPoint x="1960" y="560" as="targetPoint" />
          </mxGeometry>
        </mxCell>
        <mxCell id="18" value="" style="endArrow=none;dashed=1;html=1;dashPattern=1 3;strokeWidth=2;" parent="1" edge="1">
          <mxGeometry width="50" height="50" relative="1" as="geometry">
            <mxPoint x="550" y="760" as="sourcePoint" />
            <mxPoint x="1960" y="760" as="targetPoint" />
          </mxGeometry>
        </mxCell>
        <mxCell id="31" style="edgeStyle=orthogonalEdgeStyle;rounded=0;orthogonalLoop=1;jettySize=auto;html=1;exitX=1;exitY=0.5;exitDx=0;exitDy=0;entryX=0;entryY=0.5;entryDx=0;entryDy=0;startArrow=classic;startFill=1;endArrow=none;endFill=0;" parent="1" source="19" target="20" edge="1">
          <mxGeometry relative="1" as="geometry" />
        </mxCell>
        <mxCell id="19" value="Mast_123" style="html=1;" parent="1" vertex="1">
          <mxGeometry x="665" y="810" width="110" height="50" as="geometry" />
        </mxCell>
        <mxCell id="51" style="edgeStyle=orthogonalEdgeStyle;rounded=0;orthogonalLoop=1;jettySize=auto;html=1;entryX=0;entryY=0.5;entryDx=0;entryDy=0;startArrow=none;startFill=0;endArrow=classic;endFill=1;" parent="1" source="20" target="47" edge="1">
          <mxGeometry relative="1" as="geometry" />
        </mxCell>
        <mxCell id="20" value="Dimgebied_xyz" style="html=1;" parent="1" vertex="1">
          <mxGeometry x="1495" y="810" width="110" height="50" as="geometry" />
        </mxCell>
        <mxCell id="22" value="" style="endArrow=block;dashed=1;endFill=0;endSize=12;html=1;entryX=0.5;entryY=1;entryDx=0;entryDy=0;exitX=0.5;exitY=0;exitDx=0;exitDy=0;" parent="1" source="20" target="11" edge="1">
          <mxGeometry width="160" relative="1" as="geometry">
            <mxPoint x="1560" y="675" as="sourcePoint" />
            <mxPoint x="1560" y="512" as="targetPoint" />
          </mxGeometry>
        </mxCell>
        <mxCell id="23" value="rdf:type" style="edgeLabel;html=1;align=center;verticalAlign=middle;resizable=0;points=[];" parent="22" vertex="1" connectable="0">
          <mxGeometry x="-0.2173" y="5" relative="1" as="geometry">
            <mxPoint as="offset" />
          </mxGeometry>
        </mxCell>
        <mxCell id="24" value="" style="endArrow=block;dashed=1;endFill=0;endSize=12;html=1;entryX=0.5;entryY=1;entryDx=0;entryDy=0;exitX=0.5;exitY=0;exitDx=0;exitDy=0;" parent="1" source="19" target="7" edge="1">
          <mxGeometry width="160" relative="1" as="geometry">
            <mxPoint x="1010" y="820" as="sourcePoint" />
            <mxPoint x="1010" y="725" as="targetPoint" />
          </mxGeometry>
        </mxCell>
        <mxCell id="25" value="rdf:type" style="edgeLabel;html=1;align=center;verticalAlign=middle;resizable=0;points=[];" parent="24" vertex="1" connectable="0">
          <mxGeometry x="-0.2173" y="5" relative="1" as="geometry">
            <mxPoint as="offset" />
          </mxGeometry>
        </mxCell>
        <mxCell id="26" value="M1 (GWSL Ontologie)" style="text;align=center;fontStyle=1;verticalAlign=middle;spacingLeft=3;spacingRight=3;strokeColor=none;rotatable=0;points=[[0,0.5],[1,0.5]];portConstraint=eastwest;" parent="1" vertex="1">
          <mxGeometry x="760" y="585" width="80" height="26" as="geometry" />
        </mxCell>
        <mxCell id="27" value="M2 (GWSL Metamodel)" style="text;align=center;fontStyle=1;verticalAlign=middle;spacingLeft=3;spacingRight=3;strokeColor=none;rotatable=0;points=[[0,0.5],[1,0.5]];portConstraint=eastwest;" parent="1" vertex="1">
          <mxGeometry x="760" y="520" width="80" height="26" as="geometry" />
        </mxCell>
        <mxCell id="28" value="M0 (GWSL Dataset)" style="text;align=center;fontStyle=1;verticalAlign=middle;spacingLeft=3;spacingRight=3;strokeColor=none;rotatable=0;points=[[0,0.5],[1,0.5]];portConstraint=eastwest;" parent="1" vertex="1">
          <mxGeometry x="810" y="784" width="80" height="26" as="geometry" />
        </mxCell>
        <mxCell id="41" value="nen2660:GeometricEntity" style="swimlane;fontStyle=1;align=center;verticalAlign=top;childLayout=stackLayout;horizontal=1;startSize=26;horizontalStack=0;resizeParent=1;resizeParentMax=0;resizeLast=0;collapsible=1;marginBottom=0;" parent="1" vertex="1">
          <mxGeometry x="1750" y="200" width="160" height="34" as="geometry" />
        </mxCell>
        <mxCell id="42" value="" style="line;strokeWidth=1;fillColor=none;align=left;verticalAlign=middle;spacingTop=-1;spacingLeft=3;spacingRight=3;rotatable=0;labelPosition=right;points=[];portConstraint=eastwest;" parent="41" vertex="1">
          <mxGeometry y="26" width="160" height="8" as="geometry" />
        </mxCell>
        <mxCell id="47" value="Dimgebied_xyz_geo" style="html=1;" parent="1" vertex="1">
          <mxGeometry x="1775" y="810" width="110" height="50" as="geometry" />
        </mxCell>
        <mxCell id="48" value="" style="endArrow=block;dashed=1;endFill=0;endSize=12;html=1;entryX=0.5;entryY=1;entryDx=0;entryDy=0;exitX=0.5;exitY=0;exitDx=0;exitDy=0;" parent="1" source="47" target="IXQgC20OnIO1Nl3Fj_AV-60" edge="1">
          <mxGeometry width="160" relative="1" as="geometry">
            <mxPoint x="1560" y="595" as="sourcePoint" />
            <mxPoint x="1560" y="432" as="targetPoint" />
          </mxGeometry>
        </mxCell>
        <mxCell id="49" value="rdf:type" style="edgeLabel;html=1;align=center;verticalAlign=middle;resizable=0;points=[];" parent="48" vertex="1" connectable="0">
          <mxGeometry x="-0.2173" y="5" relative="1" as="geometry">
            <mxPoint as="offset" />
          </mxGeometry>
        </mxCell>
        <mxCell id="WbAWxhRY0L7tuLr4hEpp-52" value="" style="endArrow=classic;html=1;entryX=0;entryY=0.5;entryDx=0;entryDy=0;" parent="1" edge="1">
          <mxGeometry width="50" height="50" relative="1" as="geometry">
            <mxPoint x="495" y="834.71" as="sourcePoint" />
            <mxPoint x="665" y="834.71" as="targetPoint" />
          </mxGeometry>
        </mxCell>
        <mxCell id="4bvtFH2csz1d_1pca8mA-61" value="nen2660:EnumerationType" style="swimlane;fontStyle=1;align=center;verticalAlign=top;childLayout=stackLayout;horizontal=1;startSize=26;horizontalStack=0;resizeParent=1;resizeParentMax=0;resizeLast=0;collapsible=1;marginBottom=0;" parent="1" vertex="1">
          <mxGeometry x="1000" y="450" width="160" height="34" as="geometry" />
        </mxCell>
        <mxCell id="4bvtFH2csz1d_1pca8mA-62" value="" style="line;strokeWidth=1;fillColor=none;align=left;verticalAlign=middle;spacingTop=-1;spacingLeft=3;spacingRight=3;rotatable=0;labelPosition=right;points=[];portConstraint=eastwest;" parent="4bvtFH2csz1d_1pca8mA-61" vertex="1">
          <mxGeometry y="26" width="160" height="8" as="geometry" />
        </mxCell>
        <mxCell id="4bvtFH2csz1d_1pca8mA-67" value="qudt:Unit" style="swimlane;fontStyle=1;align=center;verticalAlign=top;childLayout=stackLayout;horizontal=1;startSize=26;horizontalStack=0;resizeParent=1;resizeParentMax=0;resizeLast=0;collapsible=1;marginBottom=0;labelBackgroundColor=none;" parent="1" vertex="1">
          <mxGeometry x="1170" y="450" width="160" height="34" as="geometry" />
        </mxCell>
        <mxCell id="4bvtFH2csz1d_1pca8mA-68" value="" style="line;strokeWidth=1;fillColor=none;align=left;verticalAlign=middle;spacingTop=-1;spacingLeft=3;spacingRight=3;rotatable=0;labelPosition=right;points=[];portConstraint=eastwest;labelBackgroundColor=#FF9999;" parent="4bvtFH2csz1d_1pca8mA-67" vertex="1">
          <mxGeometry y="26" width="160" height="8" as="geometry" />
        </mxCell>
        <mxCell id="4bvtFH2csz1d_1pca8mA-69" value="qudt:QuantityKind" style="swimlane;fontStyle=1;align=center;verticalAlign=top;childLayout=stackLayout;horizontal=1;startSize=26;horizontalStack=0;resizeParent=1;resizeParentMax=0;resizeLast=0;collapsible=1;marginBottom=0;labelBackgroundColor=none;" parent="1" vertex="1">
          <mxGeometry x="1335" y="450" width="160" height="34" as="geometry" />
        </mxCell>
        <mxCell id="4bvtFH2csz1d_1pca8mA-70" value="" style="line;strokeWidth=1;fillColor=none;align=left;verticalAlign=middle;spacingTop=-1;spacingLeft=3;spacingRight=3;rotatable=0;labelPosition=right;points=[];portConstraint=eastwest;labelBackgroundColor=#FF9999;" parent="4bvtFH2csz1d_1pca8mA-69" vertex="1">
          <mxGeometry y="26" width="160" height="8" as="geometry" />
        </mxCell>
        <mxCell id="55" value="gwsl:Attribuut" style="swimlane;fontStyle=0;childLayout=stackLayout;horizontal=1;startSize=26;horizontalStack=0;resizeParent=1;resizeParentMax=0;resizeLast=0;collapsible=1;marginBottom=0;strokeColor=#050302;fillColor=#FFFFFF;" parent="1" vertex="1">
          <mxGeometry x="880" y="330" width="160" height="48" as="geometry" />
        </mxCell>
        <mxCell id="57" value="rdf:Property" style="swimlane;fontStyle=1;align=center;verticalAlign=top;childLayout=stackLayout;horizontal=1;startSize=26;horizontalStack=0;resizeParent=1;resizeParentMax=0;resizeLast=0;collapsible=1;marginBottom=0;strokeColor=#050302;fillColor=#FFFFFF;" parent="1" vertex="1">
          <mxGeometry x="880" y="240" width="160" height="34" as="geometry" />
        </mxCell>
        <mxCell id="58" value="" style="line;strokeWidth=1;fillColor=none;align=left;verticalAlign=middle;spacingTop=-1;spacingLeft=3;spacingRight=3;rotatable=0;labelPosition=right;points=[];portConstraint=eastwest;" parent="57" vertex="1">
          <mxGeometry y="26" width="160" height="8" as="geometry" />
        </mxCell>
        <mxCell id="59" value="Extends" style="endArrow=block;endSize=16;endFill=0;html=1;entryX=0.5;entryY=1;entryDx=0;entryDy=0;exitX=0.5;exitY=0;exitDx=0;exitDy=0;" parent="1" source="55" target="57" edge="1">
          <mxGeometry x="-0.5652" width="160" relative="1" as="geometry">
            <mxPoint x="420" y="84" as="sourcePoint" />
            <mxPoint x="420" y="-52" as="targetPoint" />
            <mxPoint as="offset" />
          </mxGeometry>
        </mxCell>
        <mxCell id="19ON255b8uYszDLwPAaI-69" value="hasQuantityKind" style="edgeStyle=orthogonalEdgeStyle;rounded=0;orthogonalLoop=1;jettySize=auto;html=1;entryX=0.5;entryY=0;entryDx=0;entryDy=0;fillColor=#f8cecc;jumpStyle=arc;strokeColor=#0A0504;exitX=1;exitY=0.25;exitDx=0;exitDy=0;" parent="1" source="55" target="4bvtFH2csz1d_1pca8mA-69" edge="1">
          <mxGeometry relative="1" as="geometry">
            <mxPoint x="1040" y="390" as="sourcePoint" />
            <mxPoint x="1160" y="384" as="targetPoint" />
            <Array as="points">
              <mxPoint x="1415" y="342" />
            </Array>
          </mxGeometry>
        </mxCell>
        <mxCell id="sSuTYrh3uWMVupvRiMbS-62" value="property" style="endArrow=classic;html=1;exitX=1;exitY=1;exitDx=0;exitDy=0;entryX=0;entryY=0.5;entryDx=0;entryDy=0;" parent="1" source="iv_Oz-Tk-qWS8nwZnw3V-1" edge="1" target="57">
          <mxGeometry width="50" height="50" relative="1" as="geometry">
            <mxPoint x="830" y="350" as="sourcePoint" />
            <mxPoint x="880" y="300" as="targetPoint" />
          </mxGeometry>
        </mxCell>
        <mxCell id="IXQgC20OnIO1Nl3Fj_AV-60" value="gwsl:GeometrischeEntiteit" style="swimlane;fontStyle=0;childLayout=stackLayout;horizontal=1;startSize=26;fillColor=none;horizontalStack=0;resizeParent=1;resizeParentMax=0;resizeLast=0;collapsible=1;marginBottom=0;" parent="1" vertex="1">
          <mxGeometry x="1750" y="370" width="160" height="52" as="geometry" />
        </mxCell>
        <mxCell id="IXQgC20OnIO1Nl3Fj_AV-61" value="Extends" style="endArrow=block;endSize=16;endFill=0;html=1;entryX=0.5;entryY=1;entryDx=0;entryDy=0;exitX=0.5;exitY=0;exitDx=0;exitDy=0;" parent="1" edge="1">
          <mxGeometry width="160" relative="1" as="geometry">
            <mxPoint x="1829.4099999999996" y="370" as="sourcePoint" />
            <mxPoint x="1829.4099999999996" y="234" as="targetPoint" />
          </mxGeometry>
        </mxCell>
        <mxCell id="VtXnVy0qGmjm_ReV9THI-64" value="" style="endArrow=block;dashed=1;endFill=0;endSize=12;html=1;entryX=0.5;entryY=1;entryDx=0;entryDy=0;exitX=0.5;exitY=0;exitDx=0;exitDy=0;" edge="1" parent="1" source="VtXnVy0qGmjm_ReV9THI-66" target="4bvtFH2csz1d_1pca8mA-61">
          <mxGeometry width="160" relative="1" as="geometry">
            <mxPoint x="960" y="617" as="sourcePoint" />
            <mxPoint x="730" y="428" as="targetPoint" />
          </mxGeometry>
        </mxCell>
        <mxCell id="VtXnVy0qGmjm_ReV9THI-65" value="rdf:type" style="edgeLabel;html=1;align=center;verticalAlign=middle;resizable=0;points=[];" vertex="1" connectable="0" parent="VtXnVy0qGmjm_ReV9THI-64">
          <mxGeometry x="-0.2173" y="5" relative="1" as="geometry">
            <mxPoint as="offset" />
          </mxGeometry>
        </mxCell>
        <mxCell id="VtXnVy0qGmjm_ReV9THI-66" value="GebiedstypeEnumeratieType" style="html=1;" vertex="1" parent="1">
          <mxGeometry x="1000" y="615" width="160" height="50" as="geometry" />
        </mxCell>
        <mxCell id="VtXnVy0qGmjm_ReV9THI-67" value="hasUnit" style="edgeStyle=orthogonalEdgeStyle;rounded=0;orthogonalLoop=1;jettySize=auto;html=1;entryX=0.5;entryY=0;entryDx=0;entryDy=0;fillColor=#f8cecc;jumpStyle=arc;strokeColor=#0A0504;exitX=1;exitY=0.5;exitDx=0;exitDy=0;" edge="1" parent="1" source="55" target="4bvtFH2csz1d_1pca8mA-67">
          <mxGeometry relative="1" as="geometry">
            <mxPoint x="1050" y="352" as="sourcePoint" />
            <mxPoint x="1425" y="460" as="targetPoint" />
            <Array as="points">
              <mxPoint x="1040" y="352" />
              <mxPoint x="1250" y="352" />
            </Array>
          </mxGeometry>
        </mxCell>
        <mxCell id="VtXnVy0qGmjm_ReV9THI-68" value="enumeratie" style="edgeStyle=orthogonalEdgeStyle;rounded=0;orthogonalLoop=1;jettySize=auto;html=1;entryX=0.5;entryY=0;entryDx=0;entryDy=0;fillColor=#f8cecc;jumpStyle=arc;strokeColor=#0A0504;" edge="1" parent="1" target="4bvtFH2csz1d_1pca8mA-61">
          <mxGeometry relative="1" as="geometry">
            <mxPoint x="1040" y="362" as="sourcePoint" />
            <mxPoint x="1260" y="460" as="targetPoint" />
            <Array as="points">
              <mxPoint x="1080" y="362" />
            </Array>
          </mxGeometry>
        </mxCell>
        <mxCell id="VtXnVy0qGmjm_ReV9THI-69" value="OpleverdatumShape" style="html=1;" vertex="1" parent="1">
          <mxGeometry x="827" y="615" width="160" height="50" as="geometry" />
        </mxCell>
        <mxCell id="VtXnVy0qGmjm_ReV9THI-70" value="" style="endArrow=block;dashed=1;endFill=0;endSize=12;html=1;entryX=0.5;entryY=1;entryDx=0;entryDy=0;exitX=0.5;exitY=0;exitDx=0;exitDy=0;" edge="1" parent="1" target="55">
          <mxGeometry width="160" relative="1" as="geometry">
            <mxPoint x="906.5" y="615" as="sourcePoint" />
            <mxPoint x="906.5" y="484" as="targetPoint" />
          </mxGeometry>
        </mxCell>
        <mxCell id="VtXnVy0qGmjm_ReV9THI-71" value="rdf:type" style="edgeLabel;html=1;align=center;verticalAlign=middle;resizable=0;points=[];" vertex="1" connectable="0" parent="VtXnVy0qGmjm_ReV9THI-70">
          <mxGeometry x="-0.2173" y="5" relative="1" as="geometry">
            <mxPoint as="offset" />
          </mxGeometry>
        </mxCell>
      </root>
    </mxGraphModel>
  </diagram>
</mxfile>
